<?xml version="1.0" encoding="UTF-8" standalone="no"?>
<!-- Created with Inkscape (http://www.inkscape.org/) -->

<svg
   width="387.22855mm"
   height="330.4437mm"
   viewBox="0 0 387.22855 330.4437"
   version="1.1"
   id="svg1"
   inkscape:version="1.3.2 (091e20e, 2023-11-25)"
   sodipodi:docname="logo.svg"
   inkscape:export-filename="logo.png"
   inkscape:export-xdpi="600"
   inkscape:export-ydpi="600"
   xml:space="preserve"
   xmlns:inkscape="http://www.inkscape.org/namespaces/inkscape"
   xmlns:sodipodi="http://sodipodi.sourceforge.net/DTD/sodipodi-0.dtd"
   xmlns="http://www.w3.org/2000/svg"
   xmlns:svg="http://www.w3.org/2000/svg"><sodipodi:namedview
     id="namedview1"
     pagecolor="#ffffff"
     bordercolor="#000000"
     borderopacity="0.25"
     inkscape:showpageshadow="2"
     inkscape:pageopacity="0.0"
     inkscape:pagecheckerboard="true"
     inkscape:deskcolor="#d1d1d1"
     inkscape:document-units="mm"
     inkscape:zoom="0.2337735"
     inkscape:cx="789.22547"
     inkscape:cy="498.34562"
     inkscape:window-width="1280"
     inkscape:window-height="776"
     inkscape:window-x="0"
     inkscape:window-y="28"
     inkscape:window-maximized="0"
     inkscape:current-layer="svg1"
     showguides="false" /><defs
     id="defs1"><rect
       x="-289.97223"
       y="1278.0258"
       width="2309.0381"
       height="1825.7511"
       id="rect85" /></defs><g
     id="g85-9-9"
     transform="translate(52.780493,-406.01231)"><path
       d="m 49.848445,408.01231 c -56.1844878,0 -100.628938,45.28209 -100.628938,100.628 0,113.20756 140.081074,223.8046 191.194983,224.08857 51.11391,0.28397 192.03355,-115.07389 192.03355,-224.08857 0,-55.34591 -45.28302,-100.628 -100.62894,-100.628 -40.25156,0 -75.4717,23.47943 -91.40461,57.861 -15.93292,-34.38157 -50.31447,-57.861 -90.566045,-57.861 z"
       stroke="#ff0000"
       stroke-width="16.7715"
       fill="none"
       id="path1-9-7"
       style="stroke-width:4;stroke-dasharray:none"
       sodipodi:nodetypes="sszsscs" /><g
       id="text1-0-8-1"
       style="font-size:156.633px;font-family:'Times New Roman';-inkscape-font-specification:'Times New Roman, ';text-align:center;letter-spacing:31.75px;word-spacing:0px;text-anchor:middle;stroke:#000000;stroke-width:2;stroke-linejoin:round"
       aria-label="ireni"><path
         style="font-size:194.028px;font-family:Futura;-inkscape-font-specification:Futura"
         d="m 60.039793,560.19211 -80.840618,44.49536 -10.278702,-18.67468 80.840618,-44.49536 z m 21.782498,-39.9983 q 4.896916,-2.6953 10.430229,-1.09073 5.533313,1.60456 8.2743,6.58447 2.78667,5.06292 1.18211,10.59623 -1.52157,5.48763 -6.584484,8.2743 -5.062913,2.78667 -10.596226,1.18211 -5.48763,-1.52157 -8.274301,-6.58448 -2.78667,-5.06292 -1.182105,-10.59623 1.604565,-5.53331 6.750477,-8.36567 z"
         id="path1" /><path
         style="font-size:194.028px;font-family:Futura;-inkscape-font-specification:Futura"
         d="m 74.690373,581.2789 14.937887,15.20707 -5.880066,5.77599 q 8.509371,-0.125 13.318207,1.5258 4.942819,1.652 9.390989,6.18032 5.90876,6.01524 8.42861,16.42183 l -20.761154,6.71501 q -1.139998,-7.37953 -5.189825,-11.50234 -12.215872,-12.436 -31.005051,6.02059 L 23.798549,661.15043 8.8606617,645.94336 Z"
         id="path2" /><path
         style="font-size:194.028px;font-family:Futura;-inkscape-font-specification:Futura;fill:#ff0000"
         d="m 184.68783,691.10691 -66.12437,0.75472 q 0.98235,11.35835 7.59577,18.00986 6.61234,6.55678 16.84362,6.44001 7.95766,-0.0908 13.12479,-3.93966 5.07239,-3.84775 11.49226,-14.15364 l 18.11409,9.83637 q -4.08721,7.15263 -8.67079,12.32125 -4.58466,5.07389 -9.85193,8.45013 -5.26834,3.28151 -11.40875,4.86754 -6.14042,1.58603 -13.34021,1.6682 -20.65202,0.23572 -33.3083,-12.88433 -12.65735,-13.21477 -12.909283,-35.28781 -0.249772,-21.88357 11.721573,-35.56894 12.06823,-13.49699 32.24659,-13.72729 20.36782,-0.23248 32.35771,12.61093 11.89408,12.74976 12.15466,35.58067 z m -22.08252,-17.1813 q -4.64712,-17.00131 -21.69926,-16.80669 -3.88409,0.0443 -7.28046,1.3148 -3.39745,1.17574 -6.21353,3.48179 -2.72241,2.21024 -4.67615,5.35917 -1.95373,3.14893 -2.95039,7.13966 z"
         id="path3" /><path
         style="font-size:194.028px;font-family:Futura;-inkscape-font-specification:Futura"
         d="m 161.1068,626.08647 15.0307,-15.24866 6.07248,5.98568 q -0.0463,-15.74307 9.79678,-25.72892 11.30627,-11.47023 24.84398,-10.76376 11.59357,0.51948 25.49279,14.22003 l 40.28075,39.70498 -15.0307,15.24866 -36.70474,-36.18008 q -9.71596,-9.57708 -16.08721,-10.53612 -6.37223,-1.09301 -13.2225,5.8566 -7.44884,7.55686 -5.58177,15.64959 1.86611,7.95876 14.146,20.06313 l 31.71182,31.25852 -15.0307,15.24866 z m 69.43962,-83.67676 79.79755,46.33997 -10.70482,18.43373 -79.79755,-46.33997 z m -45.50314,1.95059 q -4.83374,-2.80704 -6.31082,-8.37574 -1.47708,-5.5687 1.37754,-10.48436 2.9022,-4.99759 8.4709,-6.47467 5.48677,-1.52465 10.48436,1.37754 4.99759,2.9022 6.47467,8.4709 1.52465,5.48677 -1.37754,10.48436 -2.9022,4.99758 -8.4709,6.47466 -5.5687,1.47708 -10.64821,-1.47269 z"
         id="path4" /></g></g></svg>
