<?xml version="1.0" encoding="UTF-8" standalone="no"?>
<!-- Created with Inkscape (http://www.inkscape.org/) -->

<svg
   width="387.22855mm"
   height="330.4437mm"
   viewBox="0 0 387.22855 330.4437"
   version="1.1"
   id="svg1"
   inkscape:version="1.3.2 (091e20e, 2023-11-25)"
   sodipodi:docname="logo-path.svg"
   inkscape:export-filename="../../Downloads/ireni.png"
   inkscape:export-xdpi="600"
   inkscape:export-ydpi="600"
   xml:space="preserve"
   xmlns:inkscape="http://www.inkscape.org/namespaces/inkscape"
   xmlns:sodipodi="http://sodipodi.sourceforge.net/DTD/sodipodi-0.dtd"
   xmlns="http://www.w3.org/2000/svg"
   xmlns:svg="http://www.w3.org/2000/svg"><sodipodi:namedview
     id="namedview1"
     pagecolor="#ffffff"
     bordercolor="#000000"
     borderopacity="0.25"
     inkscape:showpageshadow="2"
     inkscape:pageopacity="0.0"
     inkscape:pagecheckerboard="true"
     inkscape:deskcolor="#d1d1d1"
     inkscape:document-units="mm"
     inkscape:zoom="0.1964151"
     inkscape:cx="740.77808"
     inkscape:cy="934.24589"
     inkscape:window-width="1088"
     inkscape:window-height="776"
     inkscape:window-x="193"
     inkscape:window-y="28"
     inkscape:window-maximized="0"
     inkscape:current-layer="svg1"
     showguides="false" /><defs
     id="defs1"><rect
       x="-289.97223"
       y="1278.0258"
       width="2309.0381"
       height="1825.7511"
       id="rect85" /></defs><g
     id="g85-9-9"
     transform="translate(52.780493,-406.01231)"><path
       d="m 49.848445,408.01231 c -56.1844878,0 -100.628938,45.28209 -100.628938,100.628 0,113.20756 140.081074,223.8046 191.194983,224.08857 51.11391,0.28397 192.03355,-115.07389 192.03355,-224.08857 0,-55.34591 -45.28302,-100.628 -100.62894,-100.628 -40.25156,0 -75.4717,23.47943 -91.40461,57.861 -15.93292,-34.38157 -50.31447,-57.861 -90.566045,-57.861 z"
       stroke="#ff0000"
       stroke-width="16.7715"
       fill="none"
       id="path1-9-7"
       style="stroke-width:4;stroke-dasharray:none"
       sodipodi:nodetypes="sszsscs" /><g
       id="text1-0-8-1"
       style="font-size:156.633px;font-family:'Times New Roman';-inkscape-font-specification:'Times New Roman, ';text-align:center;letter-spacing:31.75px;word-spacing:0px;text-anchor:middle;stroke:#000000;stroke-width:2;stroke-linejoin:round"
       aria-label="ireni"><path
         style="font-size:194.028px;font-family:Futura;-inkscape-font-specification:Futura"
         d="m 59.039759,558.63059 -81.365517,43.5281 -10.055259,-18.79594 81.365517,-43.5281 z m 22.257963,-39.73568 q 4.928712,-2.63671 10.442496,-0.96627 5.513784,1.67044 8.195186,6.68269 2.726096,5.09579 1.055656,10.60957 -1.586907,5.4691 -6.682694,8.19519 -5.095787,2.72609 -10.60957,1.05565 -5.469094,-1.5869 -8.195187,-6.68269 -2.726092,-5.09579 -1.055652,-10.60957 1.670441,-5.51378 6.849765,-8.28457 z"
         id="path1" /><path
         style="font-size:194.028px;font-family:Futura;-inkscape-font-specification:Futura"
         d="m 77.090025,584.14741 15.154577,14.99114 -5.796573,5.85977 q 8.506701,-0.2471 13.338732,1.33453 4.966009,1.58089 9.478709,6.04492 5.99448,5.92983 8.6634,16.29919 l -20.662648,7.01224 q -1.245781,-7.36241 -5.354355,-11.42668 -12.393076,-12.25942 -30.91546,6.46491 L 27.34963,664.74103 12.195053,649.74989 Z"
         id="path2" /><path
         style="font-size:194.028px;font-family:Futura;-inkscape-font-specification:Futura;fill:#ff0000"
         d="m 184.14241,691.53832 -66.12859,0.11054 q 0.87166,11.36739 7.41997,18.083 6.54816,6.62088 16.78009,6.60378 7.95817,-0.0133 13.16254,-3.81162 5.10963,-3.79815 11.62959,-14.04101 l 18.01741,10.01236 q -4.15669,7.11248 -8.7904,12.2362 -4.63387,5.02899 -9.93378,8.35376 -5.30006,3.23003 -11.45563,4.75617 -6.15557,1.52613 -13.35582,1.53817 -20.65334,0.0345 -33.18121,-13.20819 -12.528022,-13.33745 -12.564921,-35.41189 -0.03658,-21.88496 12.067501,-35.45307 12.19915,-13.37878 32.37879,-13.41252 20.36912,-0.034 32.23333,12.92555 11.76931,12.86502 11.80748,35.69738 z m -21.9141,-17.3956 q -4.48129,-17.04577 -21.53451,-17.01727 -3.88435,0.006 -7.29293,1.24382 -3.40875,1.14258 -6.24715,3.42109 -2.74382,2.18362 -4.72813,5.31337 -1.98432,3.12975 -3.01981,7.11057 z"
         id="path3" /><path
         style="font-size:194.028px;font-family:Futura;-inkscape-font-specification:Futura"
         d="m 165.90003,622.42416 14.68205,-15.58464 6.20627,5.84684 q -0.40231,-15.738 9.21249,-25.94387 11.04401,-11.72296 24.59424,-11.32279 11.60234,0.2572 25.80781,13.63995 l 41.16827,38.78399 -14.68204,15.58464 -37.51347,-35.34086 q -9.93004,-9.35493 -16.32135,-10.16965 -6.39531,-0.94865 -13.08668,6.15409 -7.27606,7.72336 -5.22647,15.77181 2.04559,7.91452 14.59605,19.73812 l 32.41054,30.53346 -14.68205,15.58464 z m 66.8929,-84.66186 81.21287,43.81225 -10.1209,18.76067 -81.21287,-43.81225 z m -45.41949,3.378 q -4.91946,-2.65392 -6.57062,-8.17351 -1.65115,-5.51959 1.04775,-10.52244 2.74389,-5.08623 8.26348,-6.73738 5.43621,-1.69614 10.52244,1.04775 5.08622,2.74389 6.73738,8.26348 1.69614,5.4362 -1.04775,10.52243 -2.74389,5.08623 -8.26348,6.73738 -5.51959,1.65116 -10.6892,-1.13771 z"
         id="path4" /></g></g></svg>
